<svg width="71" height="120" viewBox="0 0 71 120" fill="none" xmlns="http://www.w3.org/2000/svg">
<path d="M62.7236 0.994354C63.183 0.970214 63.6186 0.969443 64.0312 0.99533C65.6223 1.09516 66.8791 1.58584 67.8311 2.58908C68.7678 3.57664 69.3572 5.00642 69.7402 6.87424C70.5031 10.5947 70.5 16.3414 70.5 24.592C70.5 30.8972 70.5005 35.7142 70.2246 39.468C69.9489 43.2192 69.3942 45.9716 68.2471 48.1223C67.0896 50.2923 65.3553 51.8013 62.8262 53.1233C62.4692 53.3099 62.0949 53.4919 61.7041 53.6731C61.9987 53.6366 62.2834 53.6078 62.5586 53.5881C65.116 53.4049 66.9655 53.9533 68.2051 55.5949C69.3976 57.1746 69.9502 59.6823 70.2246 63.1877C70.5007 66.7158 70.5 71.3744 70.5 77.342C70.5 84.362 70.5009 89.5397 70.1191 93.4621C69.7371 97.3871 68.9664 100.135 67.3682 102.252C65.7699 104.369 63.3933 105.79 59.957 107.178C56.5268 108.563 51.9482 109.948 45.9062 111.942L45.9023 111.943L21.6523 119.693L21.5781 119.717H0.5V13.3518L0.847656 13.2404L39.0918 1.01779L39.166 0.994354H62.7236ZM13.9395 106.895C13.7344 106.895 13.5781 106.909 13.4707 106.939C13.3633 106.973 13.29 107.022 13.251 107.085C13.212 107.149 13.1924 107.239 13.1924 107.356V108.286H7.50195V107.356C7.50193 107.239 7.47938 107.149 7.43555 107.085C7.39649 107.022 7.3232 106.973 7.21582 106.939C7.1084 106.909 6.95215 106.895 6.74707 106.895C6.54199 106.895 6.38574 106.909 6.27832 106.939C6.17095 106.973 6.09765 107.022 6.05859 107.085C6.01964 107.149 6.00002 107.239 6 107.356V111.706C6 111.823 6.01953 111.914 6.05859 111.978C6.09768 112.041 6.17105 112.087 6.27832 112.116C6.38574 112.151 6.54199 112.168 6.74707 112.168C6.95215 112.168 7.1084 112.151 7.21582 112.116C7.3231 112.087 7.39646 112.041 7.43555 111.978C7.47949 111.914 7.50195 111.823 7.50195 111.706V110.117H9.31055V112.344C9.31061 112.515 9.36438 112.634 9.47168 112.702C9.58398 112.771 9.79199 112.805 10.0947 112.805C10.3972 112.805 10.6046 112.771 10.7168 112.702C10.829 112.634 10.8857 112.515 10.8857 112.344V110.117H13.1191V112.974H12.0059C11.8351 112.974 11.7159 113.03 11.6475 113.142C11.5791 113.254 11.5449 113.462 11.5449 113.765C11.5449 114.077 11.5791 114.304 11.6475 114.446C11.7207 114.587 11.8399 114.658 12.0059 114.658H14.2178C14.3887 114.658 14.5107 114.621 14.584 114.548C14.6572 114.475 14.6943 114.353 14.6943 114.182V107.356C14.6943 107.239 14.6718 107.149 14.6279 107.085C14.5889 107.022 14.5156 106.973 14.4082 106.939C14.3008 106.909 14.1445 106.895 13.9395 106.895ZM13.9395 95.9006C13.7344 95.9006 13.5781 95.9153 13.4707 95.9445C13.3633 95.9787 13.29 96.0276 13.251 96.091C13.212 96.1545 13.1924 96.2446 13.1924 96.3615V97.4309H7.50195V96.3615C7.50193 96.2446 7.47938 96.1545 7.43555 96.091C7.39649 96.0276 7.3232 95.9787 7.21582 95.9445C7.1084 95.9153 6.95215 95.9006 6.74707 95.9006C6.54199 95.9006 6.38574 95.9153 6.27832 95.9445C6.17095 95.9787 6.09765 96.0276 6.05859 96.091C6.01964 96.1545 6.00002 96.2446 6 96.3615V103.188C6 103.359 6.03711 103.481 6.11035 103.554C6.18848 103.627 6.31066 103.664 6.47656 103.664H9.86035C9.97722 103.664 10.0675 103.64 10.1309 103.591C10.1943 103.542 10.2412 103.454 10.2705 103.327C10.3047 103.205 10.3213 103.029 10.3213 102.8C10.3213 102.454 10.285 102.204 10.2119 102.053C10.1436 101.907 10.0261 101.833 9.86035 101.833H7.5752V99.2619H13.1924V100.859C13.1924 100.976 13.2119 101.067 13.251 101.13C13.2901 101.193 13.3634 101.24 13.4707 101.269C13.5781 101.303 13.7344 101.321 13.9395 101.321C14.1445 101.321 14.3008 101.303 14.4082 101.269C14.5155 101.24 14.5888 101.193 14.6279 101.13C14.6719 101.067 14.6943 100.976 14.6943 100.859V96.3615C14.6943 96.2446 14.6718 96.1545 14.6279 96.091C14.5889 96.0276 14.5156 95.9787 14.4082 95.9445C14.3008 95.9153 14.1445 95.9006 13.9395 95.9006ZM13.9395 84.9065C13.7344 84.9065 13.5781 84.9211 13.4707 84.9504C13.3633 84.9846 13.29 85.0334 13.251 85.0969C13.212 85.1603 13.1924 85.2504 13.1924 85.3674V86.0783H7.50195V85.3674C7.50193 85.2504 7.47938 85.1603 7.43555 85.0969C7.39649 85.0334 7.3232 84.9846 7.21582 84.9504C7.1084 84.9211 6.95215 84.9065 6.74707 84.9065C6.54199 84.9065 6.38574 84.9211 6.27832 84.9504C6.17094 84.9846 6.09765 85.0334 6.05859 85.0969C6.01964 85.1603 6.00002 85.2504 6 85.3674V92.1936C6 92.3645 6.03711 92.4865 6.11035 92.5598C6.18848 92.6329 6.31066 92.6701 6.47656 92.6701H9.05469C9.22522 92.67 9.34477 92.6113 9.41309 92.4944C9.48142 92.3772 9.5156 92.1573 9.51562 91.8352C9.51562 91.5081 9.47948 91.2707 9.40625 91.1242C9.33796 90.9828 9.22045 90.9125 9.05469 90.9123H7.5752V87.9094H9.69141V89.6965C9.69147 89.8672 9.74524 89.9866 9.85254 90.0549C9.96484 90.1233 10.1729 90.1574 10.4756 90.1574C10.7781 90.1574 10.9854 90.1232 11.0977 90.0549C11.2098 89.9866 11.2665 89.8672 11.2666 89.6965V87.9094H13.1191V90.8391H12.0059C11.8351 90.8391 11.7159 90.895 11.6475 91.007C11.5791 91.1194 11.5449 91.3274 11.5449 91.6301C11.5449 91.9424 11.5791 92.1692 11.6475 92.3108C11.7207 92.4523 11.8399 92.5237 12.0059 92.5237H14.2178C14.3887 92.5237 14.5107 92.4865 14.584 92.4133C14.6572 92.34 14.6943 92.2179 14.6943 92.0471V85.3674C14.6943 85.2504 14.6718 85.1603 14.6279 85.0969C14.5889 85.0334 14.5156 84.9846 14.4082 84.9504C14.3008 84.9211 14.1445 84.9065 13.9395 84.9065ZM13.9395 73.8391C13.7344 73.8391 13.5781 73.8537 13.4707 73.883C13.3633 73.9172 13.29 73.9661 13.251 74.0295C13.212 74.0929 13.1924 74.1831 13.1924 74.3V74.718H7.50195V74.3C7.50193 74.183 7.47938 74.0929 7.43555 74.0295C7.39649 73.966 7.3232 73.9172 7.21582 73.883C7.1084 73.8537 6.95215 73.8391 6.74707 73.8391C6.54199 73.8391 6.38574 73.8537 6.27832 73.883C6.17094 73.9172 6.09765 73.9661 6.05859 74.0295C6.01964 74.0929 6.00002 74.1831 6 74.3V77.0393C6 77.1565 6.01953 77.2473 6.05859 77.3108C6.09768 77.3741 6.17104 77.4202 6.27832 77.4494C6.38574 77.4836 6.54199 77.5012 6.74707 77.5012C6.95215 77.5012 7.1084 77.4836 7.21582 77.4494C7.3231 77.4202 7.39646 77.3741 7.43555 77.3108C7.47949 77.2473 7.50195 77.1565 7.50195 77.0393V76.549H9.69141V79.3908H7.50195V78.8996C7.50193 78.7827 7.47938 78.6926 7.43555 78.6291C7.39649 78.5657 7.3232 78.5168 7.21582 78.4826C7.1084 78.4533 6.95215 78.4387 6.74707 78.4387C6.54199 78.4387 6.38574 78.4533 6.27832 78.4826C6.17094 78.5168 6.09765 78.5657 6.05859 78.6291C6.01964 78.6925 6.00002 78.7827 6 78.8996V81.6389C6 81.7561 6.01953 81.8469 6.05859 81.9104C6.09768 81.9737 6.17104 82.0198 6.27832 82.049C6.38574 82.0832 6.54199 82.1008 6.74707 82.1008C6.95215 82.1008 7.1084 82.0832 7.21582 82.049C7.3231 82.0198 7.39646 81.9737 7.43555 81.9104C7.47949 81.8469 7.50195 81.7561 7.50195 81.6389V81.2219H13.1924V81.6389C13.1924 81.7561 13.2119 81.8469 13.251 81.9104C13.2901 81.9737 13.3634 82.0198 13.4707 82.049C13.5781 82.0832 13.7344 82.1008 13.9395 82.1008C14.1445 82.1008 14.3008 82.0832 14.4082 82.049C14.5155 82.0198 14.5888 81.9737 14.6279 81.9104C14.6719 81.8469 14.6943 81.7561 14.6943 81.6389V78.8996C14.6943 78.7827 14.6718 78.6926 14.6279 78.6291C14.5889 78.5657 14.5156 78.5168 14.4082 78.4826C14.3008 78.4533 14.1445 78.4387 13.9395 78.4387C13.7344 78.4387 13.5781 78.4533 13.4707 78.4826C13.3633 78.5168 13.29 78.5657 13.251 78.6291C13.212 78.6925 13.1924 78.7827 13.1924 78.8996V79.3908H11.2666V76.549H13.1924V77.0393C13.1924 77.1565 13.2119 77.2473 13.251 77.3108C13.2901 77.3741 13.3634 77.4202 13.4707 77.4494C13.5781 77.4836 13.7344 77.5012 13.9395 77.5012C14.1445 77.5012 14.3008 77.4836 14.4082 77.4494C14.5155 77.4202 14.5888 77.3741 14.6279 77.3108C14.6719 77.2473 14.6943 77.1565 14.6943 77.0393V74.3C14.6943 74.183 14.6718 74.0929 14.6279 74.0295C14.5889 73.966 14.5156 73.9172 14.4082 73.883C14.3008 73.8537 14.1445 73.8391 13.9395 73.8391ZM12.1963 63.5695C11.6788 63.5695 11.2568 63.6751 10.9297 63.885C10.6075 64.0949 10.3486 64.3852 10.1533 64.7561C10.0264 64.9953 9.92578 65.2522 9.85254 65.5256C9.77932 65.799 9.69919 66.1459 9.61133 66.5656C9.53326 66.9316 9.46971 67.2073 9.4209 67.3928C9.37207 67.5832 9.30859 67.757 9.23047 67.9133C9.13772 68.1037 9.02241 68.2473 8.88574 68.3449C8.75402 68.4474 8.59061 68.4992 8.39551 68.4992C8.0832 68.4992 7.83884 68.3867 7.66309 68.1623C7.48734 67.9378 7.39945 67.6104 7.39941 67.1809C7.39941 66.6926 7.52637 66.2649 7.78027 65.8987C8.03416 65.5326 8.41234 65.2179 8.91504 64.9543C9.02244 64.9006 9.09863 64.8224 9.14258 64.7199C9.18652 64.6223 9.20801 64.4875 9.20801 64.3166C9.20799 64.0778 9.17166 63.9045 9.09863 63.7971C9.03034 63.6946 8.91283 63.6429 8.74707 63.6428H6.30078C6.13477 63.6428 6.01758 63.7092 5.94922 63.841C5.876 63.9728 5.83888 64.1947 5.83887 64.507C5.83887 64.8147 5.87598 65.0276 5.94922 65.1447C6.01761 65.2665 6.13496 65.3274 6.30078 65.3274H6.5791C6.08594 65.8938 5.83887 66.5852 5.83887 67.4006C5.8389 68.0645 5.95126 68.6234 6.17578 69.0774C6.40039 69.5315 6.71289 69.8713 7.11328 70.0959C7.51364 70.3254 7.98248 70.4397 8.51953 70.4397C9.57422 70.4397 10.3389 70.049 10.8125 69.2678C10.9882 68.9847 11.1172 68.6817 11.2002 68.3596C11.2881 68.0373 11.3809 67.6222 11.4785 67.1145C11.5664 66.5922 11.6524 66.2238 11.7354 66.009C11.8037 65.843 11.8818 65.716 11.9697 65.6281C12.0625 65.5403 12.1797 65.4963 12.3213 65.4963C12.6092 65.4964 12.8439 65.596 13.0244 65.7961C13.205 66.0012 13.2949 66.2825 13.2949 66.6389C13.2949 67.1122 13.1951 67.5297 12.9951 67.8908C12.7998 68.2521 12.5214 68.5481 12.1602 68.7776C12.082 68.8313 12.0234 68.9045 11.9844 68.9973C11.9453 69.0901 11.9258 69.2171 11.9258 69.3781C11.9258 69.6172 11.96 69.7883 12.0283 69.8908C12.1016 69.998 12.2209 70.052 12.3867 70.052H14.3936C14.5596 70.052 14.6768 69.9856 14.7451 69.8537C14.8183 69.7219 14.8554 69.4999 14.8555 69.1877C14.8555 68.8803 14.8183 68.6653 14.7451 68.5432C14.6768 68.426 14.5596 68.3674 14.3936 68.3674H14.123C14.3574 68.1233 14.5381 67.8351 14.665 67.5031C14.792 67.1712 14.8554 66.8097 14.8555 66.4192C14.8555 65.8625 14.7431 65.3664 14.5186 64.9319C14.294 64.5022 13.9785 64.1682 13.5732 63.9289C13.1729 63.6897 12.7139 63.5695 12.1963 63.5695ZM13.9395 51.8508C13.7344 51.8508 13.5781 51.8654 13.4707 51.8947C13.3633 51.9289 13.29 51.9778 13.251 52.0412C13.212 52.1047 13.1924 52.1948 13.1924 52.3117V53.0959H7.50195V52.3117C7.50193 52.1948 7.47938 52.1047 7.43555 52.0412C7.39649 51.9778 7.3232 51.9289 7.21582 51.8947C7.1084 51.8654 6.95215 51.8508 6.74707 51.8508C6.54199 51.8508 6.38574 51.8654 6.27832 51.8947C6.17094 51.9289 6.09765 51.9778 6.05859 52.0412C6.01964 52.1047 6.00002 52.1948 6 52.3117V55.7688C6 55.886 6.01953 55.9768 6.05859 56.0403C6.09768 56.1036 6.17104 56.1497 6.27832 56.1789C6.38574 56.2131 6.54199 56.2307 6.74707 56.2307C6.95215 56.2307 7.1084 56.2131 7.21582 56.1789C7.3231 56.1497 7.39646 56.1036 7.43555 56.0403C7.47949 55.9768 7.50195 55.886 7.50195 55.7688V54.927H8.79102L9.15723 55.3C9.32315 55.4709 9.40625 55.6643 9.40625 55.8791C9.40619 56.045 9.34954 56.2064 9.2373 56.3625C9.12993 56.5186 8.98127 56.6605 8.79102 56.7873C8.66896 56.8654 8.51461 56.9504 8.3291 57.0432C8.14355 57.136 7.95801 57.2268 7.77246 57.3147C7.49418 57.4367 7.24997 57.5539 7.04004 57.6662C6.71299 57.842 6.457 58.0325 6.27148 58.2375C6.09082 58.4475 6 58.7014 6 58.9992V60.0168C6 60.134 6.01953 60.2248 6.05859 60.2883C6.09768 60.3517 6.17104 60.3977 6.27832 60.427C6.38574 60.4612 6.54199 60.4787 6.74707 60.4787C6.95215 60.4787 7.1084 60.4612 7.21582 60.427C7.3231 60.3977 7.39646 60.3517 7.43555 60.2883C7.47949 60.2248 7.50195 60.134 7.50195 60.0168V59.9436C7.502 59.7923 7.55082 59.6584 7.64844 59.5412C7.74607 59.4241 7.88486 59.3117 8.06543 59.2043C8.1826 59.136 8.42194 59.0139 8.7832 58.8381C9.03223 58.7209 9.24219 58.6154 9.41309 58.5227C9.58884 58.4299 9.75784 58.3273 9.91895 58.2151C10.1531 58.0491 10.336 57.8536 10.4678 57.6291C10.6044 57.4045 10.6807 57.1554 10.6953 56.882L13.1924 59.4455V59.761C13.1924 59.8779 13.212 59.968 13.251 60.0315C13.29 60.0949 13.3633 60.1418 13.4707 60.1711C13.5781 60.2053 13.7344 60.2219 13.9395 60.2219C14.1445 60.2219 14.3008 60.2053 14.4082 60.1711C14.5156 60.1418 14.5889 60.0949 14.6279 60.0315C14.6718 59.968 14.6943 59.8779 14.6943 59.761V56.9113C14.6943 56.7944 14.6718 56.7043 14.6279 56.6408C14.5889 56.5774 14.5156 56.5285 14.4082 56.4944C14.3008 56.4651 14.1445 56.4504 13.9395 56.4504C13.7344 56.4504 13.5781 56.4651 13.4707 56.4944C13.3633 56.5285 13.29 56.5774 13.251 56.6408C13.212 56.7043 13.1924 56.7944 13.1924 56.9113V57.3L10.8486 54.927H13.1924V55.2707C13.1924 55.3879 13.2119 55.4787 13.251 55.5422C13.2901 55.6056 13.3634 55.6516 13.4707 55.6809C13.5781 55.7151 13.7344 55.7326 13.9395 55.7326C14.1445 55.7326 14.3008 55.7151 14.4082 55.6809C14.5155 55.6516 14.5888 55.6056 14.6279 55.5422C14.6719 55.4787 14.6943 55.3879 14.6943 55.2707V52.3117C14.6943 52.1948 14.6718 52.1047 14.6279 52.0412C14.5889 51.9778 14.5156 51.9289 14.4082 51.8947C14.3008 51.8654 14.1445 51.8508 13.9395 51.8508ZM10.3506 40.9514C9.43771 40.9514 8.63954 41.1176 7.95605 41.4494C7.27748 41.7863 6.75487 42.2602 6.38867 42.8703C6.02246 43.4807 5.83887 44.1867 5.83887 44.9875C5.83891 45.7882 6.0225 46.4934 6.38867 47.1037C6.75488 47.714 7.27737 48.1858 7.95605 48.5178C8.63954 48.8545 9.43773 49.0227 10.3506 49.0227C11.2636 49.0227 12.0596 48.8547 12.7383 48.5178C13.4219 48.1858 13.9443 47.7141 14.3057 47.1037C14.6718 46.4935 14.8554 45.7881 14.8555 44.9875C14.8555 44.1867 14.6719 43.4807 14.3057 42.8703C13.9443 42.2601 13.4218 41.7863 12.7383 41.4494C12.0596 41.1174 11.2636 40.9514 10.3506 40.9514ZM10.3506 42.9143C11.2685 42.9143 11.9717 43.0901 12.46 43.4416C12.9482 43.7932 13.1924 44.3088 13.1924 44.9875C13.1923 45.666 12.9481 46.1809 12.46 46.5324C11.9717 46.884 11.2686 47.0598 10.3506 47.0598C9.43276 47.0598 8.72753 46.8839 8.23438 46.5324C7.74616 46.1809 7.50202 45.6661 7.50195 44.9875C7.50195 44.3088 7.74609 43.7932 8.23438 43.4416C8.72752 43.0903 9.43288 42.9143 10.3506 42.9143ZM10.3506 29.9572C9.43771 29.9572 8.63954 30.1234 7.95605 30.4553C7.27748 30.7921 6.75487 31.266 6.38867 31.8762C6.02246 32.4865 5.83887 33.1926 5.83887 33.9934C5.83891 34.794 6.0225 35.4993 6.38867 36.1096C6.75488 36.7199 7.27737 37.1916 7.95605 37.5237C8.63954 37.8604 9.43773 38.0285 10.3506 38.0285C11.2636 38.0285 12.0596 37.8605 12.7383 37.5237C13.4219 37.1916 13.9443 36.7199 14.3057 36.1096C14.6718 35.4993 14.8554 34.794 14.8555 33.9934C14.8555 33.1926 14.6719 32.4865 14.3057 31.8762C13.9443 31.2659 13.4218 30.7922 12.7383 30.4553C12.0596 30.1233 11.2636 29.9572 10.3506 29.9572ZM10.3506 31.9201C11.2685 31.9201 11.9717 32.096 12.46 32.4475C12.9482 32.799 13.1924 33.3147 13.1924 33.9934C13.1923 34.6719 12.9481 35.1868 12.46 35.5383C11.9717 35.8899 11.2686 36.0656 10.3506 36.0656C9.43276 36.0656 8.72753 35.8898 8.23438 35.5383C7.74616 35.1868 7.50202 34.6719 7.50195 33.9934C7.50195 33.3147 7.74609 32.799 8.23438 32.4475C8.72752 32.0961 9.43288 31.9201 10.3506 31.9201ZM13.9395 19.0149C13.7344 19.0149 13.5781 19.0295 13.4707 19.0588C13.3633 19.093 13.29 19.1418 13.251 19.2053C13.212 19.2687 13.1924 19.3588 13.1924 19.4758V20.26H7.50195V19.4758C7.50193 19.3588 7.47938 19.2687 7.43555 19.2053C7.39649 19.1418 7.3232 19.093 7.21582 19.0588C7.1084 19.0295 6.95215 19.0149 6.74707 19.0149C6.54199 19.0149 6.38574 19.0295 6.27832 19.0588C6.17094 19.093 6.09765 19.1418 6.05859 19.2053C6.01964 19.2687 6.00002 19.3588 6 19.4758V23.7024C6.00004 24.713 6.21293 25.4895 6.6377 26.0315C7.06737 26.5732 7.69455 26.844 8.51953 26.844C9.6132 26.844 10.3115 26.2852 10.6143 25.1672C10.7851 25.5235 11.0128 25.7991 11.2959 25.9944C11.5839 26.1944 11.9278 26.2951 12.3281 26.2951C13.0703 26.2951 13.6494 26.0481 14.0645 25.5549C14.4841 25.0667 14.6943 24.3123 14.6943 23.2922V19.4758C14.6943 19.3588 14.6718 19.2687 14.6279 19.2053C14.5889 19.1418 14.5156 19.093 14.4082 19.0588C14.3008 19.0295 14.1445 19.0149 13.9395 19.0149ZM9.65527 22.091V23.4973C9.65524 23.9805 9.56732 24.3372 9.3916 24.5666C9.2207 24.801 8.9541 24.9182 8.59277 24.9182C7.91413 24.9182 7.57526 24.4444 7.5752 23.4973V22.091H9.65527ZM13.1191 22.091V23.1311C13.1191 23.5848 13.0437 23.9143 12.8926 24.1194C12.7461 24.3293 12.5088 24.4348 12.1816 24.4348C11.8595 24.4348 11.6201 24.3272 11.4639 24.1125C11.3077 23.8977 11.2295 23.5704 11.2295 23.1311V22.091H13.1191Z" fill="#8C280F"/>
<path d="M22 13.4755H0.5V119.476H22V13.4755ZM22 13.4755L62 0.475517M65 52.4755L43.5 59.4755" stroke="#1E1E1E"/>
</svg>
